<svg width="319" height="269" viewBox="0 0 319 269" fill="none" xmlns="http://www.w3.org/2000/svg">
<g filter="url(#filter0_d)">
<path d="M7 27C7 15.9543 15.9543 7 27 7H276C287.046 7 296 15.9543 296 27V182C296 193.046 287.046 202 276 202H223.75H197.967C191.48 202 185.396 205.146 181.647 210.44L159.66 241.48C155.675 247.106 147.325 247.106 143.34 241.48L121.353 210.44C117.604 205.146 111.52 202 105.033 202H79.25H27C15.9543 202 7 193.046 7 182V27Z" fill="white"/>
</g>
<rect x="41" y="41" width="60" height="70" rx="9" fill="#FDF8EF"/>
<rect x="51" y="51" width="30" height="4" rx="2" fill="#F5CE88"/>
<rect x="51" y="59" width="18" height="4" rx="2" fill="#E1D3B8"/>
<path d="M52.272 103.06C52.096 103.06 51.944 102.996 51.816 102.868C51.696 102.74 51.636 102.584 51.636 102.4C51.636 102.216 51.696 102.064 51.816 101.944C51.944 101.816 52.096 101.752 52.272 101.752C52.448 101.752 52.6 101.816 52.728 101.944C52.856 102.064 52.92 102.216 52.92 102.4C52.92 102.584 52.856 102.74 52.728 102.868C52.6 102.996 52.448 103.06 52.272 103.06ZM58.055 94.6C59.127 94.6 59.967 94.856 60.575 95.368C61.183 95.88 61.487 96.584 61.487 97.48C61.487 98.376 61.183 99.08 60.575 99.592C59.967 100.096 59.127 100.348 58.055 100.348H55.799V103H54.911V94.6H58.055ZM58.031 99.568C58.863 99.568 59.499 99.388 59.939 99.028C60.379 98.66 60.599 98.144 60.599 97.48C60.599 96.8 60.379 96.28 59.939 95.92C59.499 95.552 58.863 95.368 58.031 95.368H55.799V99.568H58.031ZM63.4071 94.6H66.8271C67.7151 94.6 68.4991 94.78 69.1791 95.14C69.8591 95.492 70.3871 95.988 70.7631 96.628C71.1391 97.26 71.3271 97.984 71.3271 98.8C71.3271 99.616 71.1391 100.344 70.7631 100.984C70.3871 101.616 69.8591 102.112 69.1791 102.472C68.4991 102.824 67.7151 103 66.8271 103H63.4071V94.6ZM66.7791 102.232C67.5151 102.232 68.1591 102.088 68.7111 101.8C69.2631 101.504 69.6911 101.1 69.9951 100.588C70.2991 100.068 70.4511 99.472 70.4511 98.8C70.4511 98.128 70.2991 97.536 69.9951 97.024C69.6911 96.504 69.2631 96.1 68.7111 95.812C68.1591 95.516 67.5151 95.368 66.7791 95.368H64.2951V102.232H66.7791ZM74.2091 95.368V98.668H78.5531V99.436H74.2091V103H73.3211V94.6H79.0811V95.368H74.2091Z" fill="#F5CE88"/>
<rect x="87" y="167" width="130" height="30" rx="9" fill="#EFF1FD"/>
<rect x="112" y="179" width="80" height="6" rx="3" fill="#4424A7"/>
<rect x="121" y="41" width="60" height="70" rx="9" fill="#FFECF2"/>
<rect x="131" y="51" width="30" height="4" rx="2" fill="#FFA2C0"/>
<rect x="131" y="59" width="18" height="4" rx="2" fill="#EFCAD6"/>
<path d="M132.272 103.06C132.096 103.06 131.944 102.996 131.816 102.868C131.696 102.74 131.636 102.584 131.636 102.4C131.636 102.216 131.696 102.064 131.816 101.944C131.944 101.816 132.096 101.752 132.272 101.752C132.448 101.752 132.6 101.816 132.728 101.944C132.856 102.064 132.92 102.216 132.92 102.4C132.92 102.584 132.856 102.74 132.728 102.868C132.6 102.996 132.448 103.06 132.272 103.06ZM138.325 103.072C137.493 103.072 136.741 102.888 136.069 102.52C135.405 102.152 134.881 101.644 134.497 100.996C134.121 100.34 133.933 99.608 133.933 98.8C133.933 97.992 134.121 97.264 134.497 96.616C134.881 95.96 135.409 95.448 136.081 95.08C136.753 94.712 137.505 94.528 138.337 94.528C138.961 94.528 139.537 94.632 140.065 94.84C140.593 95.048 141.041 95.352 141.409 95.752L140.845 96.316C140.189 95.652 139.361 95.32 138.361 95.32C137.697 95.32 137.093 95.472 136.549 95.776C136.005 96.08 135.577 96.496 135.265 97.024C134.961 97.552 134.809 98.144 134.809 98.8C134.809 99.456 134.961 100.048 135.265 100.576C135.577 101.104 136.005 101.52 136.549 101.824C137.093 102.128 137.697 102.28 138.361 102.28C139.369 102.28 140.197 101.944 140.845 101.272L141.409 101.836C141.041 102.236 140.589 102.544 140.053 102.76C139.525 102.968 138.949 103.072 138.325 103.072ZM145.571 103.072C144.947 103.072 144.347 102.972 143.771 102.772C143.203 102.572 142.763 102.308 142.451 101.98L142.799 101.296C143.103 101.6 143.507 101.848 144.011 102.04C144.515 102.224 145.035 102.316 145.571 102.316C146.323 102.316 146.887 102.18 147.263 101.908C147.639 101.628 147.827 101.268 147.827 100.828C147.827 100.492 147.723 100.224 147.515 100.024C147.315 99.824 147.067 99.672 146.771 99.568C146.475 99.456 146.063 99.336 145.535 99.208C144.903 99.048 144.399 98.896 144.023 98.752C143.647 98.6 143.323 98.372 143.051 98.068C142.787 97.764 142.655 97.352 142.655 96.832C142.655 96.408 142.767 96.024 142.991 95.68C143.215 95.328 143.559 95.048 144.023 94.84C144.487 94.632 145.063 94.528 145.751 94.528C146.231 94.528 146.699 94.596 147.155 94.732C147.619 94.86 148.019 95.04 148.355 95.272L148.055 95.98C147.703 95.748 147.327 95.576 146.927 95.464C146.527 95.344 146.135 95.284 145.751 95.284C145.015 95.284 144.459 95.428 144.083 95.716C143.715 95.996 143.531 96.36 143.531 96.808C143.531 97.144 143.631 97.416 143.831 97.624C144.039 97.824 144.295 97.98 144.599 98.092C144.911 98.196 145.327 98.312 145.847 98.44C146.463 98.592 146.959 98.744 147.335 98.896C147.719 99.04 148.043 99.264 148.307 99.568C148.571 99.864 148.703 100.268 148.703 100.78C148.703 101.204 148.587 101.592 148.355 101.944C148.131 102.288 147.783 102.564 147.311 102.772C146.839 102.972 146.259 103.072 145.571 103.072ZM157.622 94.6L153.902 103H153.026L149.306 94.6H150.266L153.482 101.896L156.722 94.6H157.622Z" fill="#FFA2C0"/>
<rect x="201" y="41" width="60" height="70" rx="9" fill="#E5F7F8"/>
<rect x="211" y="51" width="30" height="4" rx="2" fill="#84D8DD"/>
<rect x="211" y="59" width="18" height="4" rx="2" fill="#C4DFE0"/>
<path d="M212.272 103.06C212.096 103.06 211.944 102.996 211.816 102.868C211.696 102.74 211.636 102.584 211.636 102.4C211.636 102.216 211.696 102.064 211.816 101.944C211.944 101.816 212.096 101.752 212.272 101.752C212.448 101.752 212.6 101.816 212.728 101.944C212.856 102.064 212.92 102.216 212.92 102.4C212.92 102.584 212.856 102.74 212.728 102.868C212.6 102.996 212.448 103.06 212.272 103.06ZM218.325 103.072C217.493 103.072 216.741 102.888 216.069 102.52C215.405 102.152 214.881 101.644 214.497 100.996C214.121 100.34 213.933 99.608 213.933 98.8C213.933 97.992 214.121 97.264 214.497 96.616C214.881 95.96 215.409 95.448 216.081 95.08C216.753 94.712 217.505 94.528 218.337 94.528C218.961 94.528 219.537 94.632 220.065 94.84C220.593 95.048 221.041 95.352 221.409 95.752L220.845 96.316C220.189 95.652 219.361 95.32 218.361 95.32C217.697 95.32 217.093 95.472 216.549 95.776C216.005 96.08 215.577 96.496 215.265 97.024C214.961 97.552 214.809 98.144 214.809 98.8C214.809 99.456 214.961 100.048 215.265 100.576C215.577 101.104 216.005 101.52 216.549 101.824C217.093 102.128 217.697 102.28 218.361 102.28C219.369 102.28 220.197 101.944 220.845 101.272L221.409 101.836C221.041 102.236 220.589 102.544 220.053 102.76C219.525 102.968 218.949 103.072 218.325 103.072ZM225.571 103.072C224.947 103.072 224.347 102.972 223.771 102.772C223.203 102.572 222.763 102.308 222.451 101.98L222.799 101.296C223.103 101.6 223.507 101.848 224.011 102.04C224.515 102.224 225.035 102.316 225.571 102.316C226.323 102.316 226.887 102.18 227.263 101.908C227.639 101.628 227.827 101.268 227.827 100.828C227.827 100.492 227.723 100.224 227.515 100.024C227.315 99.824 227.067 99.672 226.771 99.568C226.475 99.456 226.063 99.336 225.535 99.208C224.903 99.048 224.399 98.896 224.023 98.752C223.647 98.6 223.323 98.372 223.051 98.068C222.787 97.764 222.655 97.352 222.655 96.832C222.655 96.408 222.767 96.024 222.991 95.68C223.215 95.328 223.559 95.048 224.023 94.84C224.487 94.632 225.063 94.528 225.751 94.528C226.231 94.528 226.699 94.596 227.155 94.732C227.619 94.86 228.019 95.04 228.355 95.272L228.055 95.98C227.703 95.748 227.327 95.576 226.927 95.464C226.527 95.344 226.135 95.284 225.751 95.284C225.015 95.284 224.459 95.428 224.083 95.716C223.715 95.996 223.531 96.36 223.531 96.808C223.531 97.144 223.631 97.416 223.831 97.624C224.039 97.824 224.295 97.98 224.599 98.092C224.911 98.196 225.327 98.312 225.847 98.44C226.463 98.592 226.959 98.744 227.335 98.896C227.719 99.04 228.043 99.264 228.307 99.568C228.571 99.864 228.703 100.268 228.703 100.78C228.703 101.204 228.587 101.592 228.355 101.944C228.131 102.288 227.783 102.564 227.311 102.772C226.839 102.972 226.259 103.072 225.571 103.072ZM237.622 94.6L233.902 103H233.026L229.306 94.6H230.266L233.482 101.896L236.722 94.6H237.622Z" fill="#7FD6DC"/>
<g clip-path="url(#clip0)">
<path d="M152 98.5035C167.642 98.5035 180.333 85.9228 180.333 70.4137C180.333 58.4605 163.481 34.3451 155.778 23.916C153.889 21.3759 150.111 21.3759 148.222 23.916C140.519 34.3451 123.667 58.4605 123.667 70.4137C123.667 85.9228 136.358 98.5035 152 98.5035ZM233.842 120.049C230.359 116.852 224.929 117.061 221.269 120.049L193.998 142.132C190.663 144.852 186.502 146.316 182.193 146.316H147.278C144.681 146.316 142.556 144.164 142.556 141.535C142.556 138.905 144.681 136.754 147.278 136.754H170.387C175.08 136.754 179.448 133.496 180.215 128.805C181.189 122.828 176.644 117.629 170.889 117.629H123.667C115.698 117.629 107.995 120.408 101.797 125.488L88.0729 136.754H71.7222C69.125 136.754 67 138.905 67 141.535V170.222C67 172.852 69.125 175.004 71.7222 175.004H177.028C181.307 175.004 185.469 173.539 188.833 170.82L233.458 134.662C237.944 131.046 238.299 124.113 233.842 120.049Z" fill="#4424A7"/>
</g>
<defs>
<filter id="filter0_d" x="0" y="0" width="319" height="268.699" filterUnits="userSpaceOnUse" color-interpolation-filters="sRGB">
<feFlood flood-opacity="0" result="BackgroundImageFix"/>
<feColorMatrix in="SourceAlpha" type="matrix" values="0 0 0 0 0 0 0 0 0 0 0 0 0 0 0 0 0 0 127 0" result="hardAlpha"/>
<feOffset dx="8" dy="8"/>
<feGaussianBlur stdDeviation="7.5"/>
<feColorMatrix type="matrix" values="0 0 0 0 0.221008 0 0 0 0 0.117361 0 0 0 0 0.541667 0 0 0 0.25 0"/>
<feBlend mode="normal" in2="BackgroundImageFix" result="effect1_dropShadow"/>
<feBlend mode="normal" in="SourceGraphic" in2="effect1_dropShadow" result="shape"/>
</filter>
<clipPath id="clip0">
<rect width="170" height="153" fill="white" transform="translate(67 22)"/>
</clipPath>
</defs>
</svg>
